<svg width="20" height="21" viewBox="0 0 20 21" fill="none" xmlns="http://www.w3.org/2000/svg">
<path d="M3.376 0.599996C3.5484 0.500827 3.75312 0.474193 3.94515 0.525952C4.13718 0.57771 4.30079 0.703622 4.4 0.875996L9.365 9.5H11.635L7.1 1.624C7.00431 1.45182 6.98019 1.2489 7.03287 1.05909C7.08554 0.869284 7.21077 0.707816 7.38151 0.609576C7.55225 0.511336 7.75478 0.484211 7.94536 0.534062C8.13593 0.583912 8.29924 0.706735 8.4 0.875996L13.365 9.5H19.298C19.686 9.5 20 9.814 20 10.202V10.5C20.0012 11.5175 19.8467 12.5292 19.542 13.5H0.458C0.15354 12.5291 -0.000906306 11.5175 1.52216e-07 10.5V10.202C1.52216e-07 9.814 0.314 9.5 0.702 9.5H7.635L3.1 1.624C3.00083 1.4516 2.9742 1.24687 3.02596 1.05484C3.07771 0.862813 3.20363 0.699202 3.376 0.599996ZM1.067 15C1.90053 16.6541 3.1771 18.0443 4.7544 19.0154C6.33169 19.9865 8.14772 20.5005 10 20.5C11.8523 20.5005 13.6683 19.9865 15.2456 19.0154C16.8229 18.0443 18.0995 16.6541 18.933 15H1.067Z" fill="#FBB700"/>
</svg>
